PathFileType	4	(X/Y/Z)	/Users/itak/Documents/Research/Walk-IL/dataset/trc/00437_00167.trc
DataRate	CameraRate	NumFrames	NumMarkers	Units	OrigDataRate	OrigDataStartFrame	OrigNumFrames
100.000000	100.000000	4	53	mm	100.000000	276	553
Frame#	Time	RPSI			LPSI			L3			STRN			T10			C7			CLAV			RBAK			LBAK			LSHO			LUPA			LAEL			LAOL			LWTS			LWPS			LFRA			LIFD			LHPS			LHTS			RSHO			RUPA			RAEL			RAOL			RWTS			RWPS			RFRA			RIFD			RHTS			RHPS			RBHD			LFHD			RFHD			LBHD			LHIP			RHIP			RASI			LASI			LKNE			LTHI			LANK			LTIP			LTOE			LMT1			LMT5			LHEE			RKNE			RTHI			RANK			RTIP			RTOE			RMT1			RMT5			RHEE			
		X1	Y1	Z1	X2	Y2	Z2	X3	Y3	Z3	X4	Y4	Z4	X5	Y5	Z5	X6	Y6	Z6	X7	Y7	Z7	X8	Y8	Z8	X9	Y9	Z9	X10	Y10	Z10	X11	Y11	Z11	X12	Y12	Z12	X13	Y13	Z13	X14	Y14	Z14	X15	Y15	Z15	X16	Y16	Z16	X17	Y17	Z17	X18	Y18	Z18	X19	Y19	Z19	X20	Y20	Z20	X21	Y21	Z21	X22	Y22	Z22	X23	Y23	Z23	X24	Y24	Z24	X25	Y25	Z25	X26	Y26	Z26	X27	Y27	Z27	X28	Y28	Z28	X29	Y29	Z29	X30	Y30	Z30	X31	Y31	Z31	X32	Y32	Z32	X33	Y33	Z33	X34	Y34	Z34	X35	Y35	Z35	X36	Y36	Z36	X37	Y37	Z37	X38	Y38	Z38	X39	Y39	Z39	X40	Y40	Z40	X41	Y41	Z41	X42	Y42	Z42	X43	Y43	Z43	X44	Y44	Z44	X45	Y45	Z45	X46	Y46	Z46	X47	Y47	Z47	X48	Y48	Z48	X49	Y49	Z49	X50	Y50	Z50	X51	Y51	Z51	X52	Y52	Z52	X53	Y53	Z53	

277	2.76	-109.2532501220703	934.4628295898438	168.3553771972656	-13.43161487579346	938.9824829101562	62.13262939453125	-64.84604644775391	1042.23291015625	140.3218231201172	162.2692108154297	1227.45751953125	307.1257629394531	-74.70561218261719	1167.472900390625	132.1756896972656	-17.27450942993164	1432.221801757812	188.6857147216797	139.5480499267578	1342.5234375	282.8782653808594	-128.3103637695312	1317.618408203125	227.8392028808594	14.7245397567749	1386.036010742188	88.18537139892578	147.0955505371094	1399.63525390625	84.47899627685547	190.8712615966797	1278.446166992188	-3.173339605331421	204.1455688476562	1058.741455078125	-20.29146385192871	100.8518142700195	1055.354614257812	-15.86104011535645	216.9500122070312	846.6636352539062	47.11299514770508	211.0583953857422	837.5070190429688	-26.10805702209473	215.0187530517578	969.376953125	-22.23249244689941	187.5040588378906	679.82275390625	33.93376541137695	199.4352264404297	756.0523681640625	-26.54300880432129	216.4533233642578	753.92138671875	42.36213302612305	-51.36586761474609	1401.033935546875	362.8831481933594	-112.0279006958008	1340.733520507812	414.5253601074219	-152.6242218017578	1051.098876953125	451.5981140136719	-173.4212036132812	1038.766235351562	387.3010559082031	-49.62162780761719	845.6724853515625	461.2200622558594	-137.6705932617188	833.4165649414062	470.8718566894531	-156.9647979736328	992.7254028320312	458.53857421875	-62.0504150390625	686.9814453125	458.0282592773438	-49.68375778198242	744.6486206054688	473.2785949707031	-125.7718734741211	746.3322143554688	473.828125	6.492189884185791	1628.488525390625	290.9460754394531	204.1930541992188	1636.908935546875	230.8900756835938	133.8380584716797	1647.615966796875	340.5577392578125	88.69110870361328	1618.2529296875	132.6339111328125	175.7233581542969	843.9006958007812	77.95323181152344	-114.8323287963867	830.6502685546875	351.3528442382812	2.283870697021484	875.7276000976562	377.2635498046875	182.2285461425781	887.0667114257812	198.8882904052734	241.3670501708984	436.9907836914062	209.8384246826172	245.25439453125	590.4125366210938	170.0049896240234	165.9051055908203	30.27565002441406	175.3980255126953	234.7421112060547	277.1279602050781	203.6565551757812	284.3583679199219	40.28598022460938	376.5335693359375	211.8542938232422	45.54645919799805	348.9006958007812	286.2075500488281	40.76266479492188	262.7532043457031	94.02035522460938	30.46786880493164	174.6893005371094	-85.78201293945312	456.3113708496094	396.6695861816406	-85.82032012939453	702.4571533203125	400.7481384277344	-361.3730773925781	228.5398101806641	154.2212982177734	-176.7262725830078	357.2962646484375	340.1241149902344	-269.1328125	40.60863494873047	154.1363067626953	-261.9144897460938	100.203010559082	119.2292022705078	-346.4689331054688	100.6606903076172	183.6743927001953	-349.360107421875	292.8085021972656	108.367317199707	
278	2.77	-100.053466796875	936.741455078125	174.5303802490234	-4.857746124267578	941.4569091796875	67.83306884765625	-55.20772933959961	1044.657104492188	145.4031677246094	171.3382263183594	1229.995361328125	312.7965698242188	-64.61776733398438	1169.929077148438	136.9535064697266	-7.705243110656738	1434.762939453125	193.7688598632812	148.5988464355469	1345.110107421875	288.6528015136719	-118.693603515625	1320.133422851562	232.1989593505859	24.77348327636719	1388.669555664062	93.15946197509766	157.0258941650391	1402.474853515625	90.40174865722656	202.6003265380859	1281.627685546875	3.40191125869751	219.8946990966797	1062.098388671875	-12.50766658782959	116.6734085083008	1056.6220703125	-9.633474349975586	237.1881561279297	851.9039916992188	58.7641487121582	232.2706146240234	841.1757202148438	-14.31300163269043	232.9098663330078	972.9527587890625	-12.81727886199951	214.0769805908203	684.0911254882812	48.38978576660156	223.6131591796875	759.5716552734375	-13.40615749359131	240.1306915283203	759.3599243164062	55.6452522277832	-42.51864242553711	1403.333618164062	367.9010314941406	-103.4563751220703	1342.91650390625	419.0595397949219	-146.1927490234375	1053.648193359375	453.6105651855469	-166.4275360107422	1043.0068359375	388.7991943359375	-51.63374328613281	843.47265625	460.8435668945312	-140.4376220703125	835.1354370117188	469.2035217285156	-152.7446594238281	995.4299926757812	459.6224975585938	-72.16860961914062	685.4207763671875	453.0555725097656	-56.97420501708984	741.9710083007812	470.0189208984375	-132.9887390136719	747.4747924804688	469.917236328125	16.22922134399414	1631.066162109375	296.781005859375	213.9808959960938	1639.249633789062	236.7952270507812	143.5958557128906	1649.829345703125	346.5034790039062	98.45862579345703	1621.090942382812	138.4825439453125	183.3977355957031	845.3880615234375	81.86650085449219	-103.6823806762695	833.2562866210938	358.1993103027344	13.13658618927002	879.0107421875	382.8201293945312	191.9711303710938	888.645751953125	202.9880065917969	244.0160980224609	436.4289245605469	209.7747344970703	249.7077026367188	590.0586547851562	171.1342010498047	165.9984741210938	30.17346000671387	175.2294464111328	236.2215423583984	276.6929931640625	203.1992492675781	284.5243530273438	40.49347305297852	376.1920776367188	212.02587890625	45.81720733642578	348.6310729980469	286.4103698730469	40.51161575317383	262.4733581542969	94.03160095214844	30.42121124267578	174.5863494873047	-66.64287567138672	459.9457702636719	409.9969177246094	-72.74604797363281	705.823486328125	409.4601440429688	-340.0443115234375	230.7878723144531	167.3876647949219	-156.4658966064453	360.4417114257812	353.4296569824219	-245.4639739990234	42.9455680847168	171.1898956298828	-238.7987823486328	103.1213607788086	135.0525970458984	-323.3824157714844	104.0848693847656	199.4427032470703	-329.2458801269531	294.2177124023438	120.3784942626953	
279	2.78	-90.9847412109375	939.0072631835938	180.9356231689453	3.439223527908325	943.7891845703125	73.63871765136719	-45.81203079223633	1047.053588867188	150.5788421630859	180.3207702636719	1232.49462890625	318.3788757324219	-54.75075912475586	1172.332275390625	141.7958068847656	1.709080815315247	1437.233154296875	198.8768768310547	157.5050964355469	1347.651611328125	294.3692016601562	-109.2163619995117	1322.592407226562	236.6320953369141	34.63638305664062	1391.248168945312	98.14100646972656	166.7650299072266	1405.262817382812	96.30091857910156	214.1711120605469	1284.827270507812	9.9508056640625	235.5665435791016	1065.607666015625	-4.791024208068848	132.4916839599609	1057.95361328125	-3.390841722488403	257.4907836914062	857.525146484375	70.347900390625	253.5110473632812	845.2117919921875	-2.529171466827393	250.7712097167969	976.7764282226562	-3.453581094741821	240.9435272216797	688.9859619140625	63.01062774658203	247.9267883300781	763.5693969726562	-0.1891910284757614	263.9956970214844	765.3466796875	68.93077850341797	-33.77157592773438	1405.545654296875	372.9462890625	-94.98821258544922	1345.051513671875	423.6266174316406	-139.9968566894531	1056.310913085938	455.7185363769531	-159.7078704833984	1047.2392578125	390.4880065917969	-53.47114181518555	841.9447021484375	460.5170593261719	-142.78857421875	837.4107666015625	467.9076843261719	-148.6088409423828	998.3203735351562	460.9066772460938	-81.71762084960938	684.9514770507812	448.27978515625	-63.8309440612793	740.2642211914062	466.8702697753906	-139.6062316894531	749.4392700195312	466.4175109863281	25.73789596557617	1633.494506835938	302.7115478515625	223.5332183837891	1641.578125	242.826904296875	153.1042175292969	1651.951293945312	352.5726623535156	108.0275421142578	1623.891357421875	144.4235229492188	190.8483276367188	846.8161010742188	85.70926666259766	-92.50971221923828	836.0521850585938	365.4273071289062	24.09301948547363	882.3536376953125	388.2801513671875	201.6737365722656	890.2584838867188	206.9099426269531	246.4335174560547	435.9299926757812	209.6264190673828	253.9108734130859	589.7408447265625	172.1712036132812	166.0993957519531	30.07267189025879	175.0538787841797	237.5821990966797	276.3323059082031	202.7380523681641	284.7219543457031	40.65661239624023	375.8447265625	212.2180480957031	46.08884048461914	348.3570556640625	286.6275329589844	40.23770141601562	262.195556640625	94.06259155273438	30.38579750061035	174.4844970703125	-47.57426071166992	463.7908935546875	423.044189453125	-59.5799446105957	709.4056396484375	418.3057861328125	-318.2413024902344	231.4830017089844	180.8359069824219	-136.1305694580078	363.5288696289062	366.5406799316406	-219.4481201171875	45.36619567871094	188.9091339111328	-214.0690612792969	105.6213760375977	151.3462677001953	-298.4883422851562	106.4802398681641	215.9085083007812	-309.1976623535156	294.0307922363281	132.4799346923828	
280	2.79	-82.03215026855469	941.2064819335938	187.5513153076172	11.50915050506592	945.973876953125	79.5517578125	-36.61584091186523	1049.389526367188	155.8600769042969	189.2432250976562	1234.933959960938	323.8660278320312	-45.08641815185547	1174.655639648438	146.7152557373047	10.98459625244141	1439.610961914062	204.0054168701172	166.2933807373047	1350.126098632812	300.0260620117188	-99.86331176757812	1324.970825195312	241.1443023681641	44.323974609375	1393.742309570312	103.1297073364258	176.3163604736328	1407.978637695312	102.1671752929688	225.5835113525391	1288.024169921875	16.46345901489258	251.1542510986328	1069.249755859375	2.873675584793091	148.3003845214844	1059.347778320312	2.875651121139526	277.7908935546875	863.5010986328125	81.84978485107422	274.7254028320312	849.6007080078125	9.225913047790527	268.57470703125	980.8308715820312	5.861999988555908	267.9360961914062	694.5142822265625	77.75643920898438	272.2767333984375	768.0411987304688	13.07885074615479	287.9254455566406	771.8592529296875	82.19316864013672	-25.10762214660645	1407.662963867188	378.0121154785156	-86.61663055419922	1347.146850585938	428.2210998535156	-134.0499877929688	1059.064575195312	457.926025390625	-153.3003387451172	1051.433715820312	392.3734436035156	-55.0361442565918	841.0519409179688	460.2614135742188	-144.6283721923828	840.1301879882812	467.0270690917969	-144.5517272949219	1001.347290039062	462.3999938964844	-90.48786163330078	685.4669799804688	443.7972412109375	-70.07583618164062	739.4589233398438	463.9014892578125	-145.4693298339844	752.0860595703125	463.4085693359375	35.02966690063477	1635.750122070312	308.7286682128906	232.8632965087891	1643.874633789062	248.9870300292969	162.3743438720703	1653.959228515625	358.7589111328125	117.4154815673828	1626.630615234375	150.4513854980469	198.1357421875	848.1751708984375	89.52413177490234	-81.29946899414062	838.9878540039062	373.016357421875	35.14408493041992	885.6998291015625	393.6387329101562	211.3474731445312	891.8772583007812	210.6826934814453	248.6364898681641	435.4873352050781	209.4492645263672	257.8950805664062	589.4510498046875	173.18017578125	166.1970367431641	29.97707176208496	174.8807220458984	238.8218231201172	276.0377197265625	202.3061218261719	284.934814453125	40.78064346313477	375.5043640136719	212.4167633056641	46.35753631591797	348.0894470214844	286.8465270996094	39.96104431152344	261.931640625	94.10662841796875	30.36160087585449	174.3912200927734	-28.60561180114746	467.767333984375	435.8095703125	-46.30680465698242	713.1664428710938	427.2802734375	-295.9920349121094	230.6594696044922	194.5484161376953	-115.7558670043945	366.4591369628906	379.4739379882812	-191.4349822998047	47.74383163452148	207.1245880126953	-187.9462127685547	107.6396789550781	167.9864501953125	-272.0708618164062	107.8055801391602	232.8664093017578	-289.1220397949219	292.3013610839844	144.7350311279297	
